# xmcd
#
# Track frame offsets: 
#        150
#        15782
#        31224
#        50172
#        70185
#        88066
#        102934
#        112366
#        136287
#        160019
#        179582
#        192987
#        214635
#
# Disc length: 3278 seconds
#
# Revision: 1
# Processed by: cddbd v1.5.2PL0 Copyright (c) Steve Scherf et al.
# Submitted via: ExactAudioCopy v0.99pb3
#
DISCID=b30ccc0d
DTITLE=Stephane Grappelli - I got rhythm Vol - 4
DYEAR=1900
DGENRE=Jazz
TTITLE0=I Hear Music
TTITLE1=All God's Childran Got Rhythm
TTITLE2=Honeysuckle Rose
TTITLE3=Do Yo Know What It Means To Miss New Orleans
TTITLE4=It's You Or No One
TTITLE5=If I Were A Bell
TTITLE6=Chicago
TTITLE7=Nuage - Daphne
TTITLE8=La Chanson Des Rues
TTITLE9=Fascinating Rhythm
TTITLE10=Them There Eyes
TTITLE11=You Are The Sunshine Of My Life
TTITLE12=I Won't Dance
EXTD=
EXTT0=
EXTT1=
EXTT2=
EXTT3=
EXTT4=
EXTT5=
EXTT6=
EXTT7=
EXTT8=
EXTT9=
EXTT10=
EXTT11=
EXTT12=
PLAYORDER=
